<?xml version="1.0" standalone="no"?>
<!DOCTYPE svg PUBLIC "-//W3C//DTD SVG 20010904//EN"
 "http://www.w3.org/TR/2001/REC-SVG-20010904/DTD/svg10.dtd">
<svg version="1.0" xmlns="http://www.w3.org/2000/svg"
 width="5000.000000pt" height="5000.000000pt" viewBox="0 0 5000.000000 5000.000000"
 preserveAspectRatio="xMidYMid meet">

<g transform="translate(0.000000,5000.000000) scale(0.100000,-0.100000)"
fill="#000000" stroke="none">
<path d="M24710 40878 c-3 -3 -117 -8 -255 -12 -274 -7 -342 -10 -645 -32
-266 -19 -317 -23 -425 -34 -49 -5 -117 -12 -150 -15 -274 -27 -731 -90 -1085
-150 -3491 -597 -6715 -2304 -9184 -4863 -1546 -1603 -2742 -3467 -3546 -5527
-463 -1188 -793 -2450 -969 -3715 -30 -211 -74 -592 -86 -740 -3 -41 -8 -91
-10 -110 -6 -46 -22 -259 -35 -445 -34 -532 -35 -1529 0 -2045 19 -281 27
-385 51 -630 115 -1202 378 -2435 769 -3610 1174 -3530 3516 -6579 6640 -8645
1794 -1186 3784 -2008 5900 -2436 390 -79 973 -172 1345 -214 77 -8 158 -18
180 -20 80 -9 462 -44 545 -50 47 -3 147 -10 222 -15 497 -34 1559 -34 2056 0
75 5 175 12 222 15 83 6 465 41 545 50 22 2 103 12 180 20 522 59 1179 172
1745 300 1992 448 3964 1304 5655 2453 3059 2080 5331 5072 6485 8542 420
1261 701 2642 795 3895 3 44 8 105 11 135 11 135 24 378 31 573 15 408 8 1350
-12 1602 -3 33 -10 132 -16 220 -121 1835 -575 3707 -1316 5425 -253 586 -616
1300 -938 1846 -1271 2152 -3024 4010 -5095 5398 -1465 983 -3014 1702 -4715
2191 -886 255 -1923 456 -2830 549 -143 14 -257 25 -320 30 -264 21 -481 36
-610 41 -82 4 -177 8 -210 10 -103 7 -920 18 -925 13z m-5357 -7474 c891 -533
1702 -1019 2312 -1384 374 -224 979 -586 1345 -805 884 -529 1823 -1091 2660
-1592 377 -225 982 -588 1345 -805 363 -217 1265 -757 2005 -1200 1280 -766
2804 -1678 4170 -2496 344 -206 826 -494 1072 -640 246 -147 448 -269 448
-272 0 -6 -164 -105 -1280 -772 -836 -500 -2481 -1485 -4700 -2813 -360 -216
-954 -571 -1320 -790 -746 -447 -1703 -1019 -2685 -1607 -363 -218 -959 -574
-1325 -793 -366 -219 -1005 -601 -1420 -850 -415 -249 -1020 -611 -1345 -805
-987 -590 -1559 -933 -1582 -948 l-23 -14 0 9386 c0 5162 3 9386 6 9386 3 0
146 -84 317 -186z"/>
</g>
</svg>
